<svg xmlns="http://www.w3.org/2000/svg" viewBox="0 0 120 120" width="120" height="120">
  <rect width="120" height="120" fill="#ffffff"/>
  <g fill="#0b0f14">
    <rect x="8" y="8" width="28" height="28"/>
    <rect x="16" y="16" width="12" height="12" fill="#ffffff"/>
    <rect x="84" y="8" width="28" height="28"/>
    <rect x="92" y="16" width="12" height="12" fill="#ffffff"/>
    <rect x="8" y="84" width="28" height="28"/>
    <rect x="16" y="92" width="12" height="12" fill="#ffffff"/>
    <rect x="44" y="8" width="8" height="8"/>
    <rect x="60" y="8" width="8" height="8"/>
    <rect x="44" y="24" width="8" height="8"/>
    <rect x="52" y="40" width="8" height="8"/>
    <rect x="68" y="40" width="8" height="8"/>
    <rect x="44" y="52" width="8" height="8"/>
    <rect x="60" y="52" width="8" height="8"/>
    <rect x="76" y="52" width="8" height="8"/>
    <rect x="44" y="68" width="8" height="8"/>
    <rect x="84" y="68" width="8" height="8"/>
    <rect x="96" y="68" width="8" height="8"/>
    <rect x="52" y="84" width="8" height="8"/>
    <rect x="68" y="84" width="8" height="8"/>
    <rect x="52" y="100" width="8" height="8"/>
    <rect x="68" y="100" width="8" height="8"/>
    <rect x="84" y="100" width="8" height="8"/>
    <rect x="100" y="100" width="8" height="8"/>
  </g>
  <text x="60" y="65" font-family="monospace" font-size="9" fill="#0b0f14" text-anchor="middle" opacity="0.001">placeholder</text>
</svg>
